<svg xmlns="http://www.w3.org/2000/svg" width="1200" height="800" viewBox="0 0 1200 800">
  <rect width="1200" height="800" fill="#f8f7ff"/>
  <style>
    text { font-family: "Microsoft YaHei", sans-serif; fill: #24232b; }
    .title { font-size: 24px; font-weight: 700; }
    .label { font-size: 17px; font-weight: 600; }
    .body { font-size: 15px; }
    .muted { font-size: 13px; fill: #6f6d78; }
    .surface { fill: #ffffff; stroke: #d6d3df; stroke-width: 1.5; }
    .row { fill: #f3f1f8; }
    .accent { fill: #e0e4ff; }
  </style>

  <text x="45" y="52" class="title">应用内 · 安排</text>
  <rect x="45" y="75" width="350" height="665" rx="28" class="surface"/>
  <rect x="70" y="100" width="300" height="44" rx="22" class="surface"/>
  <rect x="220" y="101" width="149" height="42" rx="21" class="accent"/>
  <text x="120" y="128" class="body">列表</text>
  <text x="270" y="128" class="body">安排</text>
  <rect x="70" y="164" width="300" height="42" rx="18" class="surface"/>
  <rect x="71" y="165" width="149" height="40" rx="17" class="accent"/>
  <text x="120" y="191" class="body">阶段</text>
  <text x="272" y="191" class="body">本周</text>

  <rect x="70" y="228" width="300" height="156" rx="18" class="surface"/>
  <text x="92" y="260" class="label">现在 · 2</text>
  <rect x="84" y="276" width="272" height="45" rx="12" class="row"/>
  <rect x="98" y="289" width="18" height="18" rx="3" fill="none" stroke="#55525e" stroke-width="2"/>
  <text x="130" y="306" class="body">完成设计确认</text>
  <text x="334" y="306" class="body">⋮</text>
  <line x1="70" y1="336" x2="370" y2="336" stroke="#ddd9e4"/>
  <text x="176" y="366" class="body" fill="#4f5fa8">＋ 同时任务</text>

  <rect x="70" y="400" width="300" height="112" rx="18" class="surface"/>
  <text x="92" y="432" class="label">接下来 · 1</text>
  <line x1="70" y1="456" x2="370" y2="456" stroke="#ddd9e4"/>
  <text x="176" y="488" class="body" fill="#4f5fa8">＋ 同时任务</text>

  <rect x="70" y="528" width="300" height="112" rx="18" class="surface"/>
  <text x="92" y="560" class="label">稍后 · 0</text>
  <line x1="70" y1="584" x2="370" y2="584" stroke="#ddd9e4"/>
  <text x="176" y="616" class="body" fill="#4f5fa8">＋ 同时任务</text>
  <text x="70" y="690" class="muted">安排页无右下角悬浮加号</text>

  <text x="440" y="52" class="title">手机小部件 · 现在</text>
  <rect x="440" y="75" width="335" height="420" rx="30" class="surface"/>
  <text x="470" y="118" class="label">现在</text>
  <circle cx="738" cy="110" r="20" class="accent"/>
  <text x="730" y="117" class="label">＋</text>
  <line x1="460" y1="140" x2="755" y2="140" stroke="#ddd9e4"/>

  <rect x="458" y="156" width="299" height="54" rx="13" class="row"/>
  <rect x="474" y="173" width="20" height="20" rx="4" fill="none" stroke="#55525e" stroke-width="2"/>
  <text x="508" y="191" class="body">管理沟通</text>
  <text x="666" y="190" class="muted">0/4</text>
  <text x="724" y="190" class="body">⌃</text>

  <rect x="474" y="220" width="283" height="42" rx="10" fill="#faf9fd"/>
  <rect x="494" y="232" width="17" height="17" rx="3" fill="none" stroke="#777480" stroke-width="1.7"/>
  <text x="524" y="249" class="body">考勤</text>
  <rect x="474" y="266" width="283" height="42" rx="10" fill="#faf9fd"/>
  <rect x="494" y="278" width="17" height="17" rx="3" fill="none" stroke="#777480" stroke-width="1.7"/>
  <text x="524" y="295" class="body">互动</text>
  <rect x="474" y="312" width="283" height="42" rx="10" fill="#faf9fd"/>
  <rect x="494" y="324" width="17" height="17" rx="3" fill="none" stroke="#777480" stroke-width="1.7"/>
  <text x="524" y="341" class="body">期末论文</text>

  <rect x="458" y="370" width="299" height="54" rx="13" class="row"/>
  <rect x="474" y="387" width="20" height="20" rx="4" fill="none" stroke="#55525e" stroke-width="2"/>
  <text x="508" y="405" class="body">Python 学习</text>
  <text x="658" y="404" class="muted">4/21</text>
  <text x="724" y="404" class="body">⌄</text>
  <text x="462" y="470" class="muted">任务与子任务均可直接勾选 · 整体上下滚动</text>

  <text x="820" y="52" class="title">平板小部件 · 本周</text>
  <rect x="820" y="75" width="335" height="560" rx="30" class="surface"/>
  <text x="850" y="118" class="label">本周</text>
  <circle cx="1118" cy="110" r="20" class="accent"/>
  <text x="1110" y="117" class="label">＋</text>
  <text x="850" y="155" class="muted">‹  9月7日—9月13日  ›</text>
  <text x="850" y="194" class="label">今天 · 周六 · 2</text>
  <rect x="838" y="210" width="299" height="54" rx="13" class="row"/>
  <rect x="854" y="227" width="20" height="20" rx="4" fill="none" stroke="#55525e" stroke-width="2"/>
  <text x="888" y="245" class="body">完成阶段页面验收</text>
  <text x="1098" y="245" class="body">⌄</text>
  <rect x="838" y="274" width="299" height="54" rx="13" class="row"/>
  <rect x="854" y="291" width="20" height="20" rx="4" fill="none" stroke="#55525e" stroke-width="2"/>
  <text x="888" y="309" class="body">整理本周复盘</text>
  <text x="1070" y="308" class="muted">1/3</text>
  <text x="1102" y="309" class="body">⌄</text>
  <line x1="838" y1="352" x2="1137" y2="352" stroke="#ddd9e4"/>
  <text x="850" y="386" class="label">周日 · 1</text>
  <rect x="838" y="402" width="299" height="54" rx="13" class="row"/>
  <rect x="854" y="419" width="20" height="20" rx="4" fill="none" stroke="#55525e" stroke-width="2"/>
  <text x="888" y="437" class="body">准备下周计划</text>
  <text x="1098" y="437" class="body">⌄</text>
  <rect x="838" y="478" width="299" height="66" rx="15" class="accent"/>
  <text x="862" y="506" class="muted">添加到今天 · 周六</text>
  <text x="862" y="530" class="body">输入标题后直接添加</text>
  <text x="838" y="600" class="muted">不显示空日期 · 不提供排序</text>
</svg>
